<?xml version="1.0" encoding="utf-8"?>
<!-- Generator: Adobe Illustrator 26.3.1, SVG Export Plug-In . SVG Version: 6.00 Build 0)  -->
<svg version="1.1" id="Capa_1" xmlns="http://www.w3.org/2000/svg" xmlns:xlink="http://www.w3.org/1999/xlink" x="0px" y="0px"
	 viewBox="0 0 200 200" style="enable-background:new 0 0 200 200;" xml:space="preserve">
<style type="text/css">
	.st0{fill-rule:evenodd;clip-rule:evenodd;}
</style>
<g>
	<path class="st0" d="M200,200h-41.1v-70c0-19.2-7.3-29.9-22.5-29.9c-16.5,0-25.2,11.2-25.2,29.9v70H71.7V66.7h39.6v18
		c0,0,11.9-22,40.2-22c28.3,0,48.5,17.3,48.5,53V200z"/>
	<path class="st0" d="M24.4,49.2C10.9,49.2,0,38.2,0,24.6S10.9,0,24.4,0s24.4,11,24.4,24.6S37.9,49.2,24.4,49.2z"/>
	<rect x="4" y="66.7" class="st0" width="41.3" height="133.3"/>
</g>
</svg>
