<?xml version="1.0" encoding="utf-8"?>
<!-- Generator: Adobe Illustrator 26.3.1, SVG Export Plug-In . SVG Version: 6.00 Build 0)  -->
<svg version="1.1" id="Layer_1" xmlns="http://www.w3.org/2000/svg" xmlns:xlink="http://www.w3.org/1999/xlink" x="0px" y="0px"
	 viewBox="0 0 200 200" style="enable-background:new 0 0 200 200;" xml:space="preserve">
<style type="text/css">
	.st0{fill:#10069F;}
</style>
<g>
	<path class="st0" d="M200,160.1L200,160.1c0,6.7-5.5,12.1-12.1,12.1H12.1c-6.7,0-12.1-5.5-12.1-12.1l0,0c0-6.7,5.5-12.1,12.1-12.1
		h175.7C194.5,148,200,153.4,200,160.1z"/>
	<path class="st0" d="M200,100L200,100c0,6.7-5.5,12.1-12.1,12.1H12.2C5.4,112.1,0,106.7,0,100l0,0c0-6.7,5.5-12.1,12.1-12.1h175.7
		C194.5,87.8,200,93.3,200,100z"/>
	<path class="st0" d="M200,39.9L200,39.9c0,6.7-5.5,12.1-12.1,12.1H12.1C5.4,52,0,46.5,0,39.9l0,0c0-6.7,5.5-12.1,12.1-12.1h175.7
		C194.5,27.7,200,33.1,200,39.9z"/>
</g>
</svg>
