<?xml version="1.0" encoding="utf-8"?>
<!-- Generator: Adobe Illustrator 26.3.1, SVG Export Plug-In . SVG Version: 6.00 Build 0)  -->
<svg version="1.1" id="Layer_1" xmlns="http://www.w3.org/2000/svg" xmlns:xlink="http://www.w3.org/1999/xlink" x="0px" y="0px"
	 viewBox="0 0 200 200" style="enable-background:new 0 0 200 200;" xml:space="preserve">
<style type="text/css">
	.st0{fill:#10069F;}
</style>
<path class="st0" d="M117.2,100l53.5-53.5c4.7-4.7,4.8-12.4,0-17.1c-4.8-4.8-12.5-4.8-17.1,0L100,82.9L46.5,29.3
	c-4.7-4.7-12.4-4.8-17.1,0c-4.8,4.8-4.8,12.5,0,17.1L82.9,100l-53.6,53.6c-4.7,4.7-4.8,12.4,0,17.1c4.7,4.7,12.4,4.8,17.1,0
	l53.6-53.6l53.5,53.5c4.7,4.7,12.4,4.8,17.1,0c4.7-4.7,4.8-12.4,0-17.1L117.2,100z"/>
</svg>
